<?xml version="1.0" standalone="no"?>
<!DOCTYPE svg PUBLIC "-//W3C//DTD SVG 20010904//EN"
 "http://www.w3.org/TR/2001/REC-SVG-20010904/DTD/svg10.dtd">
<svg version="1.0" xmlns="http://www.w3.org/2000/svg"
 width="1040.000000pt" height="1040.000000pt" viewBox="0 0 1040.000000 1040.000000"
 preserveAspectRatio="xMidYMid meet">
<metadata>
Created by potrace 1.14, written by Peter Selinger 2001-2017
</metadata>
<g transform="translate(0.000000,1040.000000) scale(0.100000,-0.100000)"
fill="#000000" stroke="none">
<path d="M1903 5196 l0 -2952 2251 1 c1238 0 2256 3 2261 7 8 5 13 867 6 1034
l-1 21 -1537 -1 c-846 -1 -1546 0 -1555 3 -17 3 -18 127 -18 2421 l0 2418
-703 0 -704 0 0 -2952z"/>
<path d="M3979 8132 c0 -10 -1 -249 -2 -532 l0 -515 1544 -1 c849 -1 1550 -2
1557 -3 9 -1 12 -492 12 -2419 l0 -2417 703 0 702 0 0 2950 0 2950 -2257 2
c-2094 1 -2258 0 -2259 -15z"/>
<path d="M4587 6265 c-2 -5 -3 -98 -2 -205 l0 -195 224 -5 225 -5 -1 -907 0
-908 41 -1 c48 -1 445 -1 464 0 9 1 12 232 12 1119 l0 1118 -480 0 c-324 0
-481 -3 -483 -11z"/>
</g>
</svg>
